<svg xmlns="http://www.w3.org/2000/svg" xmlns:xlink="http://www.w3.org/1999/xlink" width="500" zoomAndPan="magnify" viewBox="0 0 375 374.999991" height="500" preserveAspectRatio="xMidYMid meet" version="1.0"><defs><g/><clipPath id="de892f3404"><path d="M 116.472656 87 L 258 87 L 258 206.105469 L 116.472656 206.105469 Z M 116.472656 87 " clip-rule="nonzero"/></clipPath><clipPath id="fd85fb359b"><path d="M 146 78.285156 L 230 78.285156 L 230 165 L 146 165 Z M 146 78.285156 " clip-rule="nonzero"/></clipPath></defs><g clip-path="url(#de892f3404)"><path fill="#008037" d="M 116.75 87.582031 C 123.996094 114.460938 143.601562 136.257812 169.472656 146.183594 C 162.996094 126.160156 149.484375 109.207031 131.480469 98.515625 C 164.179688 113.695312 184.867188 146.25 185.5625 181.730469 L 185.5625 191.550781 C 183.230469 189.914062 179.921875 188.867188 176.265625 188.867188 C 173.0625 188.867188 170.101562 189.667969 167.835938 190.992188 L 167.800781 191.027344 C 167.175781 191.410156 166.582031 191.828125 166.0625 192.246094 C 162.335938 195.101562 159.304688 198.828125 157.285156 203.074219 C 156.9375 203.875 157.320312 204.816406 158.085938 205.199219 C 158.886719 205.582031 159.828125 205.269531 160.246094 204.46875 C 160.976562 202.96875 161.882812 201.542969 162.855469 200.253906 C 163.902344 198.6875 165.46875 197.539062 167.246094 197.050781 C 165.886719 197.78125 164.773438 198.863281 164.042969 200.21875 C 165.746094 203.632812 170.554688 206.105469 176.230469 206.105469 C 183.332031 206.105469 189.078125 202.238281 189.078125 197.503906 L 189.113281 197.503906 L 189.113281 181.765625 C 189.8125 146.285156 210.496094 113.730469 243.195312 98.550781 C 225.15625 109.238281 211.644531 126.195312 205.203125 146.214844 C 231.078125 136.257812 250.648438 114.460938 257.925781 87.617188 C 221.046875 98.445312 194.371094 129.050781 187.375 165.472656 C 180.375 129.015625 153.699219 98.410156 116.820312 87.617188 Z M 116.75 87.582031 " fill-opacity="1" fill-rule="evenodd"/></g><g clip-path="url(#fd85fb359b)"><path fill="#ffcc29" d="M 150.390625 99.804688 C 162.300781 110.773438 171.875 124.039062 178.527344 138.800781 C 171.457031 124.90625 161.1875 112.722656 148.542969 103.355469 C 149.101562 102.136719 149.730469 100.953125 150.390625 99.804688 Z M 228.394531 107.117188 C 209.136719 120.835938 195.871094 141.34375 191.0625 164.289062 C 209.730469 162.859375 225.050781 149.523438 229.507812 131.871094 C 222.476562 137.722656 214.464844 142.527344 205.761719 145.9375 C 205.726562 146.007812 205.726562 146.078125 205.691406 146.183594 C 205.691406 146.113281 205.726562 146.042969 205.726562 145.972656 C 205.550781 146.042969 205.34375 146.113281 205.167969 146.183594 C 205.691406 144.613281 206.210938 143.046875 206.804688 141.515625 C 210.496094 128.320312 218.050781 116.449219 228.535156 107.464844 C 228.5 107.324219 228.464844 107.21875 228.394531 107.082031 Z M 183.542969 164.21875 C 178.773438 141.585938 165.78125 121.289062 146.90625 107.605469 C 146.699219 108.265625 146.457031 108.960938 146.28125 109.625 C 156.867188 119.511719 164.878906 132.046875 169.4375 146.042969 C 169.542969 146.078125 169.683594 146.148438 169.789062 146.183594 C 169.683594 146.148438 169.578125 146.113281 169.4375 146.078125 C 169.4375 146.113281 169.472656 146.148438 169.472656 146.183594 C 169.230469 146.078125 168.984375 146.007812 168.742188 145.902344 C 161.742188 143.953125 154.917969 141.515625 148.265625 138.625 C 154.394531 152.589844 167.699219 162.6875 183.542969 164.183594 Z M 148.542969 103.460938 C 168.324219 118.257812 182.148438 139.984375 187.09375 164.425781 C 187.234375 164.425781 187.375 164.425781 187.511719 164.425781 C 187.824219 162.859375 188.175781 161.328125 188.558594 159.796875 C 192.804688 135.875 205.65625 114.289062 224.667969 99.179688 C 217.113281 86.644531 203.390625 78.285156 187.722656 78.285156 C 170.308594 78.285156 155.335938 88.628906 148.542969 103.460938 Z M 148.542969 103.460938 " fill-opacity="1" fill-rule="evenodd"/></g><g fill="#008037" fill-opacity="1"><g transform="translate(18.616019, 275.364102)"><g><path d="M 34.820312 -47.703125 L 29.414062 -47.703125 C 31.046875 -45.503906 31.238281 -40.414062 31.238281 -38.714844 L 31.238281 -16.089844 C 31.238281 -9.113281 28.03125 -4.777344 22.3125 -4.777344 C 17.535156 -4.777344 13.324219 -8.359375 13.324219 -16.089844 L 13.324219 -42.929688 C 13.324219 -45.566406 11.1875 -47.703125 8.546875 -47.703125 L 1.445312 -47.703125 C 3.769531 -44.121094 3.769531 -38.152344 3.769531 -35.761719 L 3.769531 -16.089844 C 3.769531 -4.148438 12.066406 0.628906 21.621094 0.628906 C 32.179688 0.628906 38.402344 -6.160156 38.402344 -16.089844 L 38.402344 -44.121094 C 38.402344 -46.070312 36.769531 -47.703125 34.820312 -47.703125 Z M 34.820312 -47.703125 "/></g></g></g><g fill="#008037" fill-opacity="1"><g transform="translate(58.903017, 275.364102)"><g><path d="M 7.667969 -39.34375 C 10.683594 -39.40625 12.128906 -40.097656 15.335938 -47.640625 L 10.746094 -47.640625 C 7.730469 -47.578125 6.347656 -46.886719 3.078125 -39.34375 Z M 7.792969 -33.375 C 5.152344 -33.375 3.015625 -31.238281 3.015625 -28.597656 L 3.015625 4.210938 C 3.015625 8.359375 2.828125 11.125 -0.566406 10.121094 C -1.382812 9.742188 -2.386719 9.175781 -3.644531 8.296875 C -4.902344 7.417969 -6.664062 7.792969 -7.480469 9.113281 L -10.683594 14.332031 C -7.164062 16.71875 -2.953125 16.71875 -1.761719 16.71875 C 8.359375 16.71875 12.003906 8.988281 12.003906 -3.519531 L 12.003906 -24.386719 C 12.003906 -27.96875 12.570312 -32.179688 13.199219 -33.375 Z M 7.792969 -33.375 "/></g></g></g><g fill="#008037" fill-opacity="1"><g transform="translate(73.044262, 275.364102)"><g><path d="M 32.683594 -30.292969 C 33.25 -31.804688 32.117188 -33.375 30.546875 -33.375 L 23.882812 -33.375 C 26.273438 -30.984375 25.328125 -26.835938 24.324219 -23.820312 L 18.730469 -6.664062 L 10.371094 -30.105469 C 9.742188 -32.054688 7.917969 -33.375 5.84375 -33.375 L -0.503906 -33.375 L 10.246094 -4.902344 C 11.0625 -2.324219 13.324219 -0.441406 15.964844 -0.0625 L 11.753906 10.054688 C 9.929688 14.265625 11.3125 16.71875 14.769531 16.71875 L 21.558594 16.71875 C 19.859375 15.085938 17.976562 11.4375 19.359375 7.039062 Z M 32.683594 -30.292969 "/></g></g></g><g fill="#008037" fill-opacity="1"><g transform="translate(104.720757, 275.364102)"><g><path d="M 29.351562 -8.863281 L 29.351562 -19.671875 C 29.289062 -29.226562 24.261719 -34.003906 15.902344 -34.003906 C 4.023438 -34.003906 1.195312 -25.644531 5.59375 -23.191406 C 5.59375 -26.082031 9.175781 -28.410156 12.949219 -28.410156 C 16.90625 -28.410156 19.105469 -26.648438 19.988281 -23.507812 C 11.25 -20.113281 1.382812 -16.96875 1.382812 -8.863281 C 1.382812 -4.085938 4.902344 0.691406 10.433594 0.691406 C 13.765625 0.691406 18.101562 -2.136719 18.667969 -7.101562 C 14.894531 -4.085938 10.308594 -4.964844 10.308594 -10.683594 C 10.308594 -15.839844 16.152344 -19.421875 20.363281 -20.992188 C 20.425781 -20.550781 20.425781 -20.113281 20.425781 -19.671875 L 20.425781 -4.652344 C 20.425781 -2.011719 22.5625 0.125 25.203125 0.125 L 30.546875 0.125 C 29.980469 -1.070312 29.351562 -5.28125 29.351562 -8.863281 Z M 29.351562 -8.863281 "/></g></g></g><g fill="#008037" fill-opacity="1"><g transform="translate(135.768765, 275.364102)"><g><path d="M 12.003906 -8.925781 L 12.003906 -45.253906 C 12.003906 -47.894531 9.867188 -50.03125 7.226562 -50.03125 L 1.886719 -50.03125 C 2.453125 -48.835938 3.015625 -44.6875 3.015625 -41.105469 L 3.015625 -4.714844 C 3.015625 -2.074219 5.152344 0.0625 7.792969 0.0625 L 13.199219 0.0625 C 12.570312 -1.132812 12.003906 -5.34375 12.003906 -8.925781 Z M 12.003906 -8.925781 "/></g></g></g><g fill="#008037" fill-opacity="1"><g transform="translate(149.972866, 275.364102)"><g><path d="M 17.285156 -33.941406 C 5.90625 -33.941406 1.195312 -25.894531 1.195312 -16.65625 C 1.195312 -7.417969 5.90625 0.628906 17.285156 0.628906 C 28.597656 0.628906 33.375 -7.417969 33.375 -16.65625 C 33.375 -25.894531 28.597656 -33.941406 17.285156 -33.941406 Z M 17.285156 -2.953125 C 13.703125 -2.953125 11.3125 -7.101562 11.3125 -16.65625 C 11.3125 -26.210938 13.703125 -30.359375 17.285156 -30.359375 C 20.867188 -30.359375 23.253906 -26.210938 23.253906 -16.65625 C 23.253906 -7.101562 20.867188 -2.953125 17.285156 -2.953125 Z M 17.285156 -2.953125 "/></g></g></g><g fill="#008037" fill-opacity="1"><g transform="translate(183.346326, 275.364102)"><g/></g></g><g fill="#008037" fill-opacity="1"><g transform="translate(193.025204, 275.364102)"><g><path d="M 13.890625 -42.929688 C 13.890625 -45.566406 11.753906 -47.703125 9.113281 -47.703125 L 1.761719 -47.703125 C 4.085938 -44.121094 4.085938 -38.152344 4.085938 -35.761719 L 4.085938 -4.777344 C 4.085938 -2.136719 6.222656 0 8.863281 0 L 16.277344 0 C 14.015625 -3.332031 13.890625 -8.800781 13.890625 -11.4375 Z M 23.757812 -26.144531 C 29.226562 -27.84375 34.441406 -30.671875 36.644531 -34.695312 C 39.21875 -39.34375 38.90625 -47.703125 38.90625 -47.703125 C 38.90625 -47.703125 31.300781 -47.703125 29.164062 -47.703125 C 29.164062 -45.316406 29.730469 -39.847656 27.71875 -35.070312 C 26.144531 -31.238281 20.679688 -27.59375 15.714844 -26.144531 C 15.273438 -25.769531 15.023438 -25.265625 15.023438 -24.449219 L 14.957031 -24.324219 C 14.957031 -24.199219 14.957031 -24.136719 14.957031 -24.070312 C 23.632812 -24.324219 25.957031 -3.394531 35.070312 0.628906 L 44.058594 -4.777344 C 33.6875 -11.25 33.375 -24.953125 23.757812 -26.144531 Z M 23.757812 -26.144531 "/></g></g></g><g fill="#008037" fill-opacity="1"><g transform="translate(235.826216, 275.364102)"><g><path d="M 24.199219 -33.941406 C 20.617188 -33.941406 17.597656 -30.359375 12.257812 -25.015625 L 12.257812 -28.597656 C 12.257812 -31.238281 10.121094 -33.375 7.480469 -33.375 L 2.136719 -33.375 C 2.703125 -32.179688 3.269531 -27.96875 3.269531 -24.386719 L 3.269531 -4.714844 C 3.269531 -2.074219 5.40625 0.0625 8.046875 0.0625 L 13.449219 0.0625 C 12.820312 -1.132812 12.257812 -5.34375 12.257812 -8.925781 L 12.257812 -21.433594 C 18.792969 -27.96875 20.617188 -27.402344 20.617188 -22 C 20.617188 -20.742188 22 -19.925781 23.191406 -20.425781 L 29.539062 -26.210938 C 29.539062 -28.597656 29.539062 -33.941406 24.199219 -33.941406 Z M 24.199219 -33.941406 "/></g></g></g><g fill="#008037" fill-opacity="1"><g transform="translate(263.668841, 275.364102)"><g><path d="M 12.257812 -28.597656 C 12.257812 -31.238281 10.121094 -33.375 7.480469 -33.375 L 2.136719 -33.375 C 2.703125 -32.179688 3.269531 -27.96875 3.269531 -24.386719 L 3.269531 -4.714844 C 3.269531 -2.074219 5.40625 0.0625 8.046875 0.0625 L 13.449219 0.0625 C 12.820312 -1.132812 12.257812 -5.34375 12.257812 -8.925781 Z M 7.164062 -39.34375 C 10.183594 -39.40625 11.566406 -40.097656 14.832031 -47.640625 L 10.246094 -47.640625 C 7.226562 -47.578125 5.78125 -46.886719 2.578125 -39.34375 Z M 7.164062 -39.34375 "/></g></g></g><g fill="#008037" fill-opacity="1"><g transform="translate(278.061501, 275.364102)"><g><path d="M 13.828125 0.628906 C 20.617188 0.628906 26.710938 -3.644531 26.710938 -9.363281 C 26.710938 -16.152344 19.859375 -18.164062 14.265625 -20.867188 C 10.621094 -22.691406 8.296875 -24.574219 8.296875 -26.523438 C 8.296875 -28.535156 10.121094 -30.105469 12.507812 -30.105469 C 16.71875 -30.105469 18.039062 -26.144531 17.851562 -22.4375 C 20.050781 -22.375 23.882812 -23.632812 24.890625 -24.761719 C 27.527344 -27.78125 22.125 -34.003906 13.640625 -34.003906 C 6.535156 -34.003906 1.195312 -28.785156 1.195312 -23.316406 C 1.195312 -19.359375 3.644531 -16.65625 7.355469 -14.644531 C 13.890625 -11.0625 18.980469 -9.113281 18.980469 -6.535156 C 18.980469 -4.589844 17.09375 -3.457031 14.519531 -3.457031 C 11.628906 -3.457031 7.417969 -6.976562 7.542969 -12.320312 C 5.027344 -12.003906 2.953125 -10.371094 2.011719 -8.925781 C -0.941406 -4.589844 6.097656 0.628906 13.828125 0.628906 Z M 13.828125 0.628906 "/></g></g></g><g fill="#008037" fill-opacity="1"><g transform="translate(304.584261, 275.364102)"><g><path d="M 34.570312 -8.925781 L 34.570312 -19.042969 C 34.570312 -27.90625 35.132812 -33.941406 26.773438 -33.941406 C 22.0625 -33.941406 19.042969 -30.984375 12.507812 -25.015625 L 12.507812 -44.058594 C 12.507812 -46.699219 10.371094 -48.835938 7.730469 -48.835938 L 2.386719 -48.835938 C 2.953125 -47.640625 3.519531 -43.492188 3.519531 -39.910156 L 3.519531 -4.714844 C 3.519531 -2.074219 5.65625 0.0625 8.296875 0.0625 L 13.703125 0.0625 C 13.074219 -1.132812 12.507812 -5.34375 12.507812 -8.925781 L 12.507812 -21.433594 C 19.671875 -28.597656 25.582031 -30.671875 25.582031 -19.925781 L 25.582031 -4.714844 C 25.582031 -2.074219 27.71875 0.0625 30.359375 0.0625 L 35.761719 0.0625 C 35.132812 -1.132812 34.570312 -5.34375 34.570312 -8.925781 Z M 34.570312 -8.925781 "/></g></g></g><g fill="#008037" fill-opacity="1"><g transform="translate(340.723144, 275.364102)"><g><path d="M 12.257812 -28.597656 C 12.257812 -31.238281 10.121094 -33.375 7.480469 -33.375 L 2.136719 -33.375 C 2.703125 -32.179688 3.269531 -27.96875 3.269531 -24.386719 L 3.269531 -4.714844 C 3.269531 -2.074219 5.40625 0.0625 8.046875 0.0625 L 13.449219 0.0625 C 12.820312 -1.132812 12.257812 -5.34375 12.257812 -8.925781 Z M 7.164062 -39.34375 C 10.183594 -39.40625 11.566406 -40.097656 14.832031 -47.640625 L 10.246094 -47.640625 C 7.226562 -47.578125 5.78125 -46.886719 2.578125 -39.34375 Z M 7.164062 -39.34375 "/></g></g></g></svg>